# xmcd
#
# Track frame offsets:
# 182
# 24005
# 36227
# 56367
# 78042
# 93465
# 109137
# 133377
# 148647
# 171250
# 189640
#
# Disc length: 2785 seconds
#
#
# Revision: 1
# Processed by: cddbd v1.5.2PL0 Copyright (c) Steve Scherf et al.
# Submitted via: FreeRIP 2.96 
#
DISCID=8e0adf0b
DTITLE=Barflys, The [AUS] - In the Wind
DYEAR=1999
DGENRE=Blues
TTITLE0=In the Wind [from 'In the Wind', 1999] [MLVox]
TTITLE1=20 Bar Blues [from 'In the Wind', 1999] [MLVox]
TTITLE2=One Woman [from 'In the Wind', 1999] [MLVox]
TTITLE3=Another Sleepless Night [from 'In the Wind', 1999] [MLVox]
TTITLE4=Yeah Girl [from 'In the Wind', 1999] [MLVox]
TTITLE5=Combat [from 'In the Wind', 1999] [MLVox]
TTITLE6=Boogie Bitch [from 'In the Wind', 1999] [MLVox]
TTITLE7=Schow Me What You Got [from 'In the Wind', 1999] [MLVox]
TTITLE8=Ride On [from 'In the Wind', 1999] [MLVox]
TTITLE9=Rock and Roll [from 'In the Wind', 1999] [MLVox]
TTITLE10=Thunder Down Under [from 'In the Wind', 1999] [MLVox]
EXTD=Australian band originating from Port Adelaide, South Australia
EXTT0=
EXTT1=
EXTT2=
EXTT3=
EXTT4=
EXTT5=
EXTT6=
EXTT7=
EXTT8=
EXTT9=
EXTT10=
PLAYORDER=
